<svg xmlns="http://www.w3.org/2000/svg" xmlns:xlink="http://www.w3.org/1999/xlink" xmlns:xodm="http://www.corel.com/coreldraw/odm/2003" xml:space="preserve" width="10in" height="1.58646in" style="shape-rendering:geometricPrecision; text-rendering:geometricPrecision; image-rendering:optimizeQuality; fill-rule:evenodd; clip-rule:evenodd" viewBox="0 0 10000.01 1586.46"> <defs> <style type="text/css"> <![CDATA[ .fil0 {fill:#282828;fill-rule:nonzero} .fil2 {fill:#B02E3B;fill-rule:nonzero} .fil1 {fill:#EA7034;fill-rule:nonzero} ]]> </style> </defs> <g id="Layer_x0020_1"> <metadata id="CorelCorpID_0Corel-Layer"></metadata> <path class="fil0" d="M805.39 1331.99c-27.2,-82.66 -175.68,-536 -175.68,-536 0,0 -143.19,452.68 -170.39,536l-171.66 0c-19.08,-45.27 -264.46,-785.97 -287.65,-867.02l227.17 0 160.61 601.15c0,0 163.62,-563.66 172.16,-601.15l153.33 0c8.34,36.89 167.19,601.15 167.19,601.15l162.22 -601.15 223.66 0c-23.09,81.06 -270.04,821.39 -289.36,867.02l-171.6 0z"></path> <path class="fil0" d="M1657.19 1351c-57.03,0 -109.27,-5.08 -155.4,-15.07 -44.97,-9.78 -84.03,-25.89 -116.14,-47.78 -31.37,-21.48 -55.82,-49.84 -72.54,-84.37 -16.96,-34.99 -25.55,-79.05 -25.55,-130.91 0,-48.99 9.79,-90.79 29.17,-124.32 19.48,-33.63 45.83,-60.78 78.3,-80.76 33.58,-20.53 72.63,-35.64 116.15,-44.87 44.56,-9.43 91.34,-14.3 139.08,-14.3 32.27,0 61.49,1.49 86.63,4.25 24.6,2.72 44.67,6.28 59.72,10.5l26.35 7.57 0 -51.59c0,-49.24 -15.41,-89.59 -45.77,-120.07 -30.88,-30.82 -80.86,-45.77 -152.83,-45.77 -44.52,0 -89.15,3.26 -132.62,9.69 -33.48,5.02 -44.36,11.04 -71.27,19.28l-45.67 -164.39c11.04,-2.96 23.59,-6.12 37.49,-9.33 21.73,-5.02 45.83,-9.53 71.88,-13.5 26.05,-3.97 53.9,-7.43 82.67,-10.24 28.61,-2.76 57.86,-4.21 86.87,-4.21 73.34,0 135.02,8.38 183.31,24.84 47.18,16.06 85.32,39.2 113.38,68.86 28.02,29.62 48.13,66.1 59.89,108.67 12.04,44.12 18.17,93.96 18.17,148.27l0 518.59c-34.93,7.23 -80.66,15.56 -136.33,24.74 -64.24,10.8 -143.29,16.22 -234.94,16.22zm41.4 -411.08c-24.84,0 -48.73,1.51 -70.91,4.52 -23.49,3.16 -44.54,9.38 -62.65,18.37 -19.38,9.73 -34.83,23.13 -46.03,39.95 -11.4,17.11 -17.27,38.4 -17.27,63.2 0,48.13 17.22,82.41 51.01,101.83 30.06,17.21 71.01,26.05 121.7,26.05 25.71,0 50.2,-0.6 73.54,-1.81 24.03,-1.15 42.95,-2.96 57.72,-5.37l17.26 -2.96 0 -229.33 -16.2 -3.56c-11.1,-2.46 -27.06,-4.82 -48.84,-7.33 -21.53,-2.36 -41.46,-3.57 -59.33,-3.57z"></path> <path class="fil0" d="M2509.59 1352.71c-67.26,0 -123.23,-9.04 -166.54,-26.95 -42.67,-17.63 -77.04,-42.21 -102.34,-73.39 -25.55,-31.27 -43.56,-69.92 -53.81,-114.89 -10.49,-46.62 -15.81,-99.13 -15.81,-156.09l0 -745.76 215.82 -34.78 0 264.17 323.64 0 -48.79 172.65 -274.85 0 0 340.26c0,57.68 10.6,104.76 31.43,140.09 22.83,38.85 67.56,58.53 132.7,58.53 28.65,0 58.57,-2.72 89.09,-8.08 21.43,-3.83 41.7,-8.63 60.58,-14.56l28.91 159.81c-25.85,9.73 -54.46,18.37 -85.08,25.75 -36.24,8.83 -81.65,13.25 -134.96,13.25z"></path> <path class="fil0" d="M3221.49 1356.14c-79.7,0 -149.16,-11.94 -206.23,-35.53 -56.67,-23.45 -103.85,-55.67 -140.19,-95.82 -36.35,-40.05 -63.34,-88.28 -80.22,-143.3 -17.11,-55.86 -25.89,-117.39 -25.89,-183 0,-62.94 10.34,-123.03 30.76,-178.59 20.23,-55.26 49.84,-104.05 88.04,-144.95 38.24,-40.86 85.32,-73.83 140.04,-97.93 54.65,-24.03 118.09,-36.18 188.56,-36.18 46.64,0 89.91,4.17 128.65,12.45 28.35,6.07 53.81,14.04 80.61,25.1l-36.99 166.83c-14.56,-4.72 -32.19,-9.59 -50.04,-13.9 -30.22,-7.23 -64.41,-10.94 -101.54,-10.94 -82.27,0 -145.01,26.49 -186.37,78.69 -40.19,50.8 -60.58,117.91 -60.58,199.42 0,86.13 19.22,154.34 57.02,202.73 39.14,49.98 106.45,75.34 200.32,75.34 32.13,0 66.91,-3.02 103.49,-8.88l17.87 -2.82c17.47,-2.56 31.57,-4.62 47.49,-9.59l41.4 162.43c-25.59,9.39 -56.41,17.81 -91.8,25.04 -43.32,8.94 -91.96,13.41 -144.41,13.41z"></path> <path class="fil0" d="M4114.96 1331.99l0 -461.12c0,-87.69 -11.5,-148.86 -35.04,-187.07 -25.24,-40.9 -70.97,-61.69 -135.92,-61.69 -24.24,0 -47.48,2.22 -68.82,6.43 -20.57,4.11 -39.39,8.64 -56.11,13.35l-14.95 4.27 0 685.84 -215.92 0 0 -1260.43 215.92 -34.73 0 439.58 27.2 -9.08c16.46,-5.42 38,-10.74 63.9,-15.61 25.59,-4.93 50.69,-7.48 74.68,-7.48 70.47,0 129.8,9.73 176.08,28.71 45.37,18.63 82.06,45.37 109.11,79.21 27.26,34.33 46.88,75.73 58.18,123.17 11.7,48.79 17.61,104.2 17.61,164.43l0 492.24 -215.92 0z"></path> <polygon class="fil0" points="5146.54,1331.99 5146.54,641.04 5069,638.69 5102.58,464.97 5362.42,464.97 5362.42,1331.99 "></polygon> <path class="fil0" d="M4495.79 1331.99l0 -936.09c0,-111.43 31.47,-200.72 93.5,-265.47 61.83,-64.5 155.85,-97.22 279.58,-97.22 46.23,0 84.93,3.81 114.89,11.44 23.09,5.87 43.62,12.11 91.6,27.66l-37.49 161.27c-43.92,-13.4 -56.67,-16.52 -71.78,-18.77 -23.33,-3.61 -47.38,-5.48 -71.32,-5.48 -33.68,0 -62.79,4.92 -86.43,14.51 -24.35,9.87 -44.01,23.83 -58.42,41.5 -13.9,17.31 -23.99,38.04 -29.81,61.63 -5.63,22.34 -8.44,46.63 -8.44,72.38l0 65.6 280.08 0 -34.13 172.71 -245.94 0 0 694.32 -215.88 0z"></path> <path class="fil0" d="M5253.65 305.76c-28.61,0 -52.56,-9.04 -73.53,-27.56 -20.39,-18.11 -30.28,-42.56 -30.28,-74.88 0,-32.22 9.89,-56.77 30.28,-74.83 20.97,-18.57 44.97,-27.6 73.53,-27.6 28.51,0 52.5,9.04 73.49,27.6 20.37,18.13 30.26,42.61 30.26,74.83 0,32.27 -9.89,56.77 -30.26,74.88 -20.94,18.52 -44.98,27.56 -73.49,27.56z"></path> <path class="fil0" d="M5527.58 1331.99l0 -824.51c42.21,-14.1 91.56,-27.7 147.11,-40.45 60.98,-13.96 130.1,-21.04 205.23,-21.04 13.11,0 29.31,0.85 48.29,2.46 19.17,1.71 38.34,3.97 57.52,6.83 19.17,2.86 38.34,6.17 57.56,10.15 11,2.25 20.93,4.81 29.87,7.63l-39.81 172.21c-10.84,-2.42 -22.02,-4.63 -34.73,-7.19l-21.33 -4.27c-32.37,-6.61 -67.46,-9.93 -104.25,-9.93 -16.97,0 -36.79,1.45 -60.54,4.47 -23.94,3.06 -41.7,6.42 -54.31,10.24l-14.7 4.41 0 688.99 -215.93 0z"></path> <path class="fil0" d="M6535.57 1356.15c-78.71,0 -147.87,-11.69 -205.59,-34.79 -57.43,-22.93 -105.46,-54.65 -142.89,-94.3 -37.45,-39.61 -65.56,-87.29 -83.43,-141.65 -18.21,-55.16 -27.44,-115.74 -27.44,-180.04 0,-77.54 11.94,-146.11 35.53,-203.69 23.6,-57.57 54.92,-106.15 93.06,-144.35 38.15,-38.09 82.52,-67.3 132,-86.87 49.7,-19.68 101.49,-29.67 153.89,-29.67 122.37,0 220.2,37.59 290.67,111.83 70.71,74.58 106.56,186.81 106.56,333.78 0,14.59 -0.6,30.56 -1.71,47.87 -0.65,9.94 -1.31,19.38 -1.91,28.11l-587.71 0 2.52 22.94c6.42,58.92 34.23,106.25 82.86,140.78 47.08,33.43 110.38,50.45 188.18,50.45 48.17,0 96.26,-4.46 142.85,-13.36 34.98,-6.62 65.55,-14.56 91.24,-23.59l27.81 167.9c-10.6,4.41 -23.39,8.83 -38.2,13.25 -22.24,6.63 -47.28,12.55 -74.64,17.61 -27.5,5.08 -57.52,9.33 -89.09,12.7 -31.41,3.41 -63.24,5.06 -94.56,5.06zm-41.41 -744.35c-31.72,0 -59.73,5.68 -83.17,16.62 -23.19,10.98 -43.01,25.85 -58.68,44.12 -15.45,18.11 -27.46,39.2 -35.74,62.73 -7.88,22.34 -13.7,45.39 -17.31,68.46l-3.85 23.94 386.37 0 -1.1 -21.83c-1.31,-23.35 -5.32,-46.54 -12.15,-68.82 -7.07,-23.19 -18.21,-44.18 -33.12,-62.39 -15.01,-18.27 -34.09,-33.33 -56.67,-45.03 -22.99,-11.83 -51.5,-17.81 -84.57,-17.81z"></path> <path class="fil0" d="M7027.24 522.96c0,11.59 -2,22.02 -6.03,31.47 -4.06,9.48 -9.57,17.56 -16.5,24.23 -6.93,6.73 -14.97,11.95 -24.04,15.67 -9.09,3.71 -18.67,5.62 -28.61,5.62 -11.1,0 -21.33,-2.01 -30.56,-5.92 -9.33,-3.97 -17.28,-9.29 -23.91,-16.16 -6.61,-6.87 -11.83,-14.95 -15.61,-24.4 -3.81,-9.37 -5.66,-19.52 -5.66,-30.5 0,-11.55 2.05,-22 6.07,-31.47 4.06,-9.44 9.48,-17.53 16.41,-24.24 6.97,-6.67 15.01,-11.89 24.2,-15.67 9.23,-3.65 18.81,-5.56 29.05,-5.56 9.94,0 19.52,1.91 28.61,5.56 9.07,3.77 17.11,8.99 24.04,15.67 6.93,6.72 12.45,14.8 16.5,24.24 4.03,9.48 6.03,19.92 6.03,31.47zm-16.42 0c0,-9.35 -1.55,-17.93 -4.51,-25.65 -3.07,-7.88 -7.22,-14.61 -12.6,-20.17 -5.32,-5.58 -11.5,-9.99 -18.72,-13.11 -7.13,-3.06 -14.76,-4.57 -22.94,-4.57 -8.44,0 -16.2,1.51 -23.43,4.57 -7.13,3.12 -13.46,7.53 -18.78,13.11 -5.37,5.56 -9.49,12.29 -12.49,20.17 -3.06,7.73 -4.52,16.31 -4.52,25.65 0,8.78 1.31,16.96 4.13,24.69 2.7,7.69 6.61,14.41 11.8,20.13 5.11,5.78 11.28,10.39 18.57,13.64 7.27,3.37 15.51,5.08 24.74,5.08 8.18,0 15.81,-1.51 22.94,-4.62 7.23,-3.06 13.4,-7.43 18.72,-13.05 5.38,-5.62 9.53,-12.25 12.6,-20.07 2.96,-7.72 4.51,-16.32 4.51,-25.8zm-74.03 44.01l-13.96 0 0 -85.13 32.22 0c10.23,0 18.11,1.96 23.24,5.73 5.22,3.86 7.88,10.09 7.88,18.77 0,7.69 -2.17,13.3 -6.43,16.82 -4.21,3.51 -9.53,5.66 -15.85,6.37l23.83 37.43 -15.75 0 -22.04 -36.38 -13.15 0 0 36.38zm15.61 -48.33l7.47 -0.3 6.33 -1.71 4.31 -4.01 1.61 -7.33 -1.75 -6.18 -4.43 -3.47 -5.98 -1.59 -6.31 -0.36 -16.86 0 0 24.94 15.61 0z"></path> <path class="fil1" d="M7580.38 748.43c-131.96,14.85 -229.32,-0.15 -294.53,-19.52 46.88,1.75 99.48,-0.1 157.86,-8.04 250.67,-33.32 344.62,-79.91 322.88,-132.86 156.7,65.21 132.66,124.34 -186.21,160.42z"></path> <path class="fil2" d="M8983.24 1586.46c-201.28,0 -448.58,-72.89 -587.56,-160.28 -275.71,-164.87 -327.59,-281.43 -907.83,-245.98 239.43,-113.04 100.09,-197.91 16.82,-216.63 -344.77,-62.09 -502.72,-316.07 -502.72,-316.07 0,0 75.73,64.51 234.8,85.28 57.07,59.07 187.22,167.49 399.69,202.12 71.47,14.51 191.78,84.93 -13.8,169.75 499.35,-24.64 545.79,24 783.69,150.07 206.9,93.96 330.72,131.86 528.28,132.82 451.03,2.21 783.85,-235.7 795.9,-572.3 12,-336.74 -357.51,-623.19 -771,-637.94 -243.89,-8.68 -372.82,52.16 -421.37,72.13 -286.15,112.93 -530.08,291.91 -807.93,295.82 -64.3,-39.56 -175.73,-95.45 -330.03,-122.77 455.6,80.41 627.06,-68.91 1017.51,-265.72 156.19,-88.64 379.45,-158 560.29,-156.75 523.55,3.52 1047.12,369.92 1021.11,822.91 -25.5,443.75 -492.44,763.53 -1015.83,763.53z"></path> </g> </svg>